<svg width="96" height="96" viewBox="0 0 96 96" fill="none" xmlns="http://www.w3.org/2000/svg">
<g opacity="0.8">
<g opacity="0.8">
<path opacity="0.3" fill-rule="evenodd" clip-rule="evenodd" d="M42.4688 18.5208H19.7813C19.0851 18.5208 18.5208 19.0851 18.5208 19.7813V42.4688C18.5208 43.1649 19.0851 43.7292 19.7813 43.7292H42.4688C43.1649 43.7292 43.7292 43.1649 43.7292 42.4688V19.7813C43.7292 19.0851 43.1649 18.5208 42.4688 18.5208ZM19.7813 16C17.6929 16 16 17.6929 16 19.7813V42.4688C16 44.5571 17.6929 46.25 19.7813 46.25H42.4688C44.5571 46.25 46.25 44.5571 46.25 42.4688V19.7813C46.25 17.6929 44.5571 16 42.4688 16H19.7813Z" fill="white"/>
<path opacity="0.3" fill-rule="evenodd" clip-rule="evenodd" d="M76.2188 18.5208H53.5313C52.8351 18.5208 52.2708 19.0851 52.2708 19.7813V42.4688C52.2708 43.1649 52.8351 43.7292 53.5313 43.7292H76.2188C76.9149 43.7292 77.4792 43.1649 77.4792 42.4688V19.7813C77.4792 19.0851 76.9149 18.5208 76.2188 18.5208ZM53.5313 16C51.4429 16 49.75 17.6929 49.75 19.7813V42.4688C49.75 44.5571 51.4429 46.25 53.5313 46.25H76.2188C78.3071 46.25 80 44.5571 80 42.4688V19.7813C80 17.6929 78.3071 16 76.2188 16H53.5313Z" fill="white"/>
<path opacity="0.3" fill-rule="evenodd" clip-rule="evenodd" d="M76.2188 52.2718H53.5313C52.8351 52.2718 52.2708 52.8361 52.2708 53.5322V76.2198C52.2708 76.9159 52.8351 77.4802 53.5313 77.4802H76.2188C76.9149 77.4802 77.4792 76.9159 77.4792 76.2198V53.5322C77.4792 52.8361 76.9149 52.2718 76.2188 52.2718ZM53.5313 49.751C51.4429 49.751 49.75 51.4439 49.75 53.5322V76.2198C49.75 78.3081 51.4429 80.001 53.5313 80.001H76.2188C78.3071 80.001 80 78.3081 80 76.2198V53.5322C80 51.4439 78.3071 49.751 76.2188 49.751H53.5313Z" fill="white"/>
<path opacity="0.3" fill-rule="evenodd" clip-rule="evenodd" d="M42.4688 52.2718H19.7813C19.0851 52.2718 18.5208 52.8361 18.5208 53.5322V76.2198C18.5208 76.9159 19.0851 77.4802 19.7813 77.4802H42.4688C43.1649 77.4802 43.7292 76.9159 43.7292 76.2198V53.5322C43.7292 52.8361 43.1649 52.2718 42.4688 52.2718ZM19.7813 49.751C17.6929 49.751 16 51.4439 16 53.5322V76.2198C16 78.3081 17.6929 80.001 19.7813 80.001H42.4688C44.5571 80.001 46.25 78.3081 46.25 76.2198V53.5322C46.25 51.4439 44.5571 49.751 42.4688 49.751H19.7813Z" fill="white"/>
</g>
</g>
</svg>
