<svg width="96" height="96" viewBox="0 0 96 96" fill="none" xmlns="http://www.w3.org/2000/svg">
<g clip-path="url(#clip0_23867_6016)">
<path opacity="0.6" d="M48 40.6312C39.5166 40.6312 31.5376 39.8499 25.5338 38.4307C21.1845 37.4061 16 35.5962 16 32.8156C16 30.035 21.1845 28.2271 25.5338 27.2006C31.5376 25.7814 39.5166 25 48 25C56.4834 25 64.4624 25.7814 70.4662 27.2006C74.8155 28.2271 80 30.037 80 32.8176C80 35.5982 74.8155 37.4061 70.4662 38.4347C64.4604 39.8539 56.4834 40.6352 48 40.6352V40.6312ZM48 25.6737C29.2612 25.6737 16.6737 29.3673 16.6737 32.8156C16.6737 36.264 29.2612 39.9575 48 39.9575C66.7388 39.9575 79.3263 36.264 79.3263 32.8156C79.3263 29.3673 66.7388 25.6737 48 25.6737Z" fill="white"/>
<path opacity="0.5" d="M48 48.1118C39.5166 48.1118 31.5376 47.3304 25.5338 45.9112C21.1845 44.8847 16 43.0768 16 40.2942C16 37.5116 21.1845 35.7057 25.5338 34.6771C31.5396 33.2579 39.5186 32.4766 48 32.4766C56.4814 32.4766 64.4624 33.2579 70.4662 34.6771C74.8155 35.7037 80 37.5136 80 40.2942C80 43.0748 74.8155 44.8827 70.4662 45.9112C64.4604 47.3304 56.4834 48.1118 48 48.1118ZM48 33.1523C29.2612 33.1523 16.6737 36.8458 16.6737 40.2942C16.6737 43.7425 29.2612 47.4361 48 47.4361C66.7388 47.4361 79.3263 43.7425 79.3263 40.2942C79.3263 36.8458 66.7388 33.1523 48 33.1523Z" fill="white"/>
<path opacity="0.4" d="M48 55.5903C39.5166 55.5903 31.5376 54.8089 25.5338 53.3897C21.1845 52.3632 16 50.5553 16 47.7746C16 44.994 21.1845 43.1861 25.5338 42.1576C31.5396 40.7384 39.5186 39.957 48 39.957C56.4814 39.957 64.4624 40.7384 70.4662 42.1576C74.8155 43.1841 80 44.994 80 47.7746C80 50.5553 74.8155 52.3632 70.4662 53.3917C64.4604 54.8109 56.4834 55.5923 48 55.5923V55.5903ZM48 40.6308C29.2612 40.6308 16.6737 44.3243 16.6737 47.7746C16.6737 51.225 29.2612 54.9165 48 54.9165C66.7388 54.9165 79.3263 51.223 79.3263 47.7746C79.3263 44.3263 66.7388 40.6328 48 40.6328V40.6308Z" fill="white"/>
<path opacity="0.3" d="M48 63.0698C39.5166 63.0698 31.5376 62.2884 25.5338 60.8692C21.1845 59.8427 16 58.0328 16 55.2522C16 52.4716 21.1845 50.6637 25.5338 49.6351C31.5396 48.2159 39.5186 47.4346 48 47.4346C56.4814 47.4346 64.4624 48.2159 70.4662 49.6351C74.8155 50.6617 80 52.4716 80 55.2522C80 58.0328 74.8155 59.8407 70.4662 60.8692C64.4604 62.2884 56.4834 63.0698 48 63.0698ZM48 48.1123C29.2612 48.1123 16.6737 51.8058 16.6737 55.2542C16.6737 58.7025 29.2612 62.3961 48 62.3961C66.7388 62.3961 79.3263 58.7025 79.3263 55.2542C79.3263 51.8058 66.7388 48.1123 48 48.1123Z" fill="white"/>
<path opacity="0.2" d="M48 70.5483C39.5166 70.5483 31.5376 69.767 25.5338 68.3477C21.1845 67.3212 16 65.5113 16 62.7307C16 59.9501 21.1845 58.1422 25.5338 57.1137C31.5396 55.6944 39.5186 54.9131 48 54.9131C56.4814 54.9131 64.4624 55.6944 70.4662 57.1137C74.8155 58.1402 80 59.9501 80 62.7307C80 65.5113 74.8155 67.3192 70.4662 68.3477C64.4604 69.767 56.4834 70.5483 48 70.5483ZM48 55.5908C29.2612 55.5908 16.6737 59.2843 16.6737 62.7327C16.6737 66.1811 29.2612 69.8746 48 69.8746C66.7388 69.8746 79.3263 66.1811 79.3263 62.7327C79.3263 59.2843 66.7388 55.5908 48 55.5908Z" fill="white"/>
</g>
<defs>
<clipPath id="clip0_23867_6016">
<rect width="64" height="45.5483" fill="white" transform="translate(16 25)"/>
</clipPath>
</defs>
</svg>
